<?xml version="1.0" encoding="utf-8"?>
<!-- Generator: Adobe Illustrator 21.1.0, SVG Export Plug-In . SVG Version: 6.00 Build 0)  -->
<svg version="1.1" id="Слой_1" xmlns="http://www.w3.org/2000/svg" xmlns:xlink="http://www.w3.org/1999/xlink" x="0px" y="0px"
	 viewBox="0 0 101.4 141.7" style="enable-background:new 0 0 101.4 141.7;" xml:space="preserve">
<style type="text/css">
	.st0{fill-rule:evenodd;clip-rule:evenodd;fill:#E41684;}
	.st1{fill-rule:evenodd;clip-rule:evenodd;}
	.st2{fill-rule:evenodd;clip-rule:evenodd;fill:#FFFFFF;}
	.st3{fill:#FFFFFF;}
</style>
<g>
	<rect y="0" class="st0" width="101.4" height="134.6"/>
	<rect x="29.6" y="34.5" class="st1" width="42.2" height="107.3"/>
	<path class="st2" d="M73.9,104.2c-0.2-0.1-0.4-0.1-0.6-0.2c-1.2-0.6-2-1.8-2.7-3c-0.4-0.2-0.9-1.2-1.1-1.6
		c-0.1-0.1-0.7-0.7-0.5-0.7c0-0.6-2.1-4.3-2.4-5.1c-0.3-0.3-0.2-0.9-0.5-1.1c0-0.7-1-2.2-1.3-3c-0.1-0.2-0.1-0.5-0.3-0.7
		c-0.5-1-1-2-1.5-3c-0.4-0.7-0.8-1.5-1.1-2.3c-1.1-2.2-2-4.5-2.8-6.9c-0.2-0.1-0.3-0.9-0.4-1.1c0-0.1,0-0.1,0-0.1
		c-0.5-1.2-0.8-2.6-1.2-3.8c-0.2-1.2-0.7-2.3-1-3.5c0,0-0.1,0-0.1,0c0,0,0-0.1,0-0.1c0,0,0.1,0,0.1,0c-0.5-1.5-0.9-3.1-1.3-4.7
		c-0.3-0.6-0.6-1.7-0.6-2.4c-0.1-0.2-0.5-2.4-0.6-2.5c-0.5-2.9-1.2-5.9-1.3-8.9c0-0.1,0-0.1-0.3-4.8c0.2-0.4,0.1-1.2,0-1.7
		c0-0.9-0.2-2.5,0.2-3.3c-0.3-1-0.1-2.2,0-3.2c0-0.2,0-0.2,0.2-3.3c0.2-0.3,0.4-1,0.7-1.1c0.1,0.7,0.1,1.4,0.2,2.1c0,0,0.1,0,0.1,0
		c0.1,0.1,0.1,0.2,0.2,0.4c-0.1,0-0.1,0-0.2,0c0.1,1,0.3,2,0.4,3.1c-0.1,0.7-0.2,1.4-0.3,2.1c0.6,1.9,0.6,1.9,0.6,2
		c-0.1,0.1-0.2,0.1-0.3,0.2c0.1,0.9,0.7,1.9,0.2,2.9c0,0.7,0.3,1.4,0.8,2c0,0,0,0,0.1,0c-0.1-1.2-0.5-2.6-0.5-3.9
		c0.1,0.1,0.1,0.5,0.2,0.5c0.3,1.7,0.4,3,0.5,3.1c0,1.2,0,2.4,0.3,3.6c0.7,2.1,1.6,4.2,1.9,6.5c0.2,0.3,0.2,1.7,0.5,1.9
		c1.4,5.5,3.7,10.8,5.5,16.1c0.2,0.7,0.6,1.4,0.8,2.1c0.8,1.7,1.3,3.7,2.4,5.2c0,0,0-0.1,0.1-0.1c0,0.6,0.7,1.5,1,2
		c0.1,0,0.1,0,0.5,0.9c0,0,0.1,0,0.1,0c0,0.1,0,0.1,0,0.2c0.3,0.6,0.7,1.2,0.9,1.8c0,0,0.1,0,0.1,0c0,0.4,0.5,1.4,0.7,1.9
		c0.3,1,0.5,1.9,0.5,3c0.2,0.7,0.2,0.7,0.3,1.1c0,0,0.1,0,0.1,0c0,0.4,0.4,1.5,0.8,1.7c0,0,0,0-0.1,0c0,0.3,0.8,1.1,0.9,1.2
		c0.1,0,0.2,0,0.3,0c0-0.2-0.1-0.5-0.1-0.7c0.1,0,0.1,0,0.2,0c0.6,3.2,3.4,4.6,2.4,8.1c-0.2,0.3-0.3,0.5-0.5,0.7
		C74.6,104,74.4,104.2,73.9,104.2 M62.4,97.9C62.4,97.8,62.4,97.8,62.4,97.9c0.1-0.2,0.1-0.3,0.1-0.5c-0.3-0.5-0.3-0.8-0.8-1.2
		c-0.1,0.2,0,0.3,0.2,0.4C62,97,62.1,97.5,62.4,97.9 M61.2,96.4c0,0,0.1-0.1,0.1-0.1c0,0-0.1,0-0.1,0C61.1,96.3,61.1,96.3,61.2,96.4
		 M25.9,96.7c0.1-0.1,0.1-0.1,0.2-0.2c0.3,0,0.5,0.2,0.6-0.3c0.1-0.1,0.1-0.2,0.2-0.3c0.6-0.4,0.9-0.8,1.3-1.5
		c0.8-0.2,1.4-0.7,1.9-1.5c0.3-0.3,0.3-0.4,0.6-0.6c0.1-0.2,0.3-0.8,0.5-0.8c0-0.1,0-0.1,0-0.1c0,0,0,0,0.1,0c0-0.1,0-0.1,0-0.2
		c0.1-0.2,0.5-0.2,0.5-0.5c0.2,0,0.2,0,0.3-0.1c0,0,0-0.1,0-0.1c0,0,0.1,0,0.1,0c0.6-0.4,1.2-0.9,1.9-1.1c0,0,0-0.1,0-0.1
		c0.1,0,0.2-0.1,0.3-0.1c0.4-0.6,1-1.2,1.5-1.7c0.6-0.5,1.3-0.9,1.6-1.2c0.5-0.2,1.2-0.8,1.7-0.8c0,0,0-0.1,0-0.1
		c0.2,0,0.2,0,0.5-0.2c0.8-0.2,1.7-0.5,2.6-0.8c1.2-0.2,2.3-0.3,3.5-0.3c0.4,0.2,2.5,0.2,2.5,0.8c0.4-0.3,0.9,0.4,1.4,0.3
		c0.2,0.1,0.5,0.2,0.7,0.4c1.7,0.2,2.6,2,4.1,2.7c-0.2-0.2-0.6-0.8-0.9-0.8c0,0,0-0.1,0-0.1c-0.2,0-0.3-0.2-0.4-0.3
		c0.4-0.1,0.8,0.2,0.9,0.7c0.3,0.3,0.6,0.4,0.9,0.6c0,0.1,0,0.2,0,0.3c0.2,0.1,0.2,0.1,0.8,0.5c0.3,0.3,0.6,0.9,0.9,1.3
		c0.8,0.7,1.9,1.7,2,1.7c-0.1-0.7-0.3-1.4-0.9-1.8c-0.3-0.4-0.9-1.6-1.4-1.7c-0.6-1.3-2.3-2.7-3.2-3.6c-1.1-0.9-1.1-0.9-1.2-1
		c-0.5-0.4-1.2-0.8-1.4-1c-1.2-0.4-2.2-1.1-3.4-1.3c-1-0.4-2.2-0.4-3.3-0.4c0,0-0.1,0-0.1,0.1c-0.6-0.1-1.3,0.2-1.8,0
		c0,0,0,0.1,0,0.1c-0.1,0.1-0.3,0-0.4,0c-0.4,0.3-0.9,0.1-1.4,0.4c0-0.1,0-0.1-0.1-0.1C40,81.9,40,82,39.9,82.1c0,0-0.1,0-0.1,0
		c-0.1,0.2-0.5,0.2-0.7,0.2c0,0,0,0.1,0,0.1c-1.8,0.3-3.9,2.1-5.4,3.3c0,0-0.1,0-0.1,0c0.1-0.2,0.2-0.4,0.4-0.6
		c0-0.5,0.9-1.9,1.3-2.4c0-0.1,0-0.1,0-0.2c0.1-0.1,0.2-0.1,0.2-0.2c0,0,0,0,0-0.1c0.1-0.2,0.2-0.4,0.4-0.6
		c-0.1-0.3,0.4-0.9,0.5-1.1c0-0.2,0-0.3,0-0.5c0.4-0.4,0.6-1,1-1.4c0.2-0.5,0.5-1,0.7-1.5c0.1-0.5,0.2-1,0.6-1.3
		c0.8-1.2,1.2-3,2-4.2c0.2-0.7,0.6-2,1.1-2.6c0.2-0.6,0.4-1.2,0.7-1.8c0.3-1,0.7-2,1-2.9c0.3-0.5,0.3-1.4,0.6-1.8
		c0.5-1.5,1-3.1,1.4-4.7c0.1-0.2,0.2-0.4,0.3-0.7c0,0,0,0,0-0.1c0.3-1.1,0.8-2.3,1-3.4c0.2-0.3,0.5-1.4,0.5-1.8
		c0.4-1.4,0.9-2.9,1.2-4.4c0.1-0.3,0.3-1.2,0.4-1.3c1.2-4.4,2.1-9,2.5-13.6c0.4-2.7,0.8-5.4,1.4-8c0.1-0.4,0.1-1.8,0.4-2.1
		c0.1-2.5,0.1-5.1,0.1-7.6c-0.1-1.1-0.5-2.3-1.5-2.6c-1-0.1-1.4,0.4-2.1,1c-0.1,0.3-0.4,1.1-0.7,1.2c0,0,0,0.1,0.1,0.2
		c0,0,0,0-0.1,0.1c-0.1,1.4-0.3,2.8-0.5,4.2c-0.1,0.4-0.3,0.9-0.3,1.3c0.1,0,0.1,0,0.2-0.3c0,0,0.1,0,0.2,0c0.1,0.1,0.1,0.2,0.2,0.4
		c0,1.5-0.1,3.1-0.6,4.5c-0.1,0.1-0.2,0.5-0.3,0.6c-0.6,1.1-1.1,2.3-1.2,3.7c-0.3,0.2-0.5,5-0.5,5.1c0,0.3-0.1,2.5-0.2,2.6
		c0,0.2-0.3,2.8-0.6,3c0,0.2-0.5,2.9-0.5,3.1c-0.4,0.7-0.5,1.9-0.7,2.7c-0.3,1.1-0.5,2.2-0.8,3.3c-0.2,1.9-0.8,3.9-1.3,5.8
		c-0.1,0.5-0.3,1-0.3,1.5c-0.1,0.5-0.6,2.5-0.7,2.6c0,0.1,0,0.1-0.8,2.9c0,0-0.1,0-0.1,0c0.1,0.1,0.1,0.1,0.1,0.4
		c-0.3,0.5-0.3,1.7-0.8,1.9c0,0,0,0.1,0,0.1c0,0,0,0,0.1,0c0,0.1,0,0.1-0.2,0.8c-0.1,0.4-0.3,2.1-0.4,2.2c-0.1,0.8-0.4,2.8-0.9,3.4
		c0,0.1-0.3,0.7-0.4,0.8c-0.8,1.4-1.3,3.1-1.7,4.7c0,0,0.1,0,0.1,0c0-0.1,0.3-0.9,0.4-1.2c0.3-0.6,0.6-1.5,0.7-2.1
		c0.1,0,0.1,0,0.1-0.2c0.2,0.5,0,1.4-0.1,1.9c-0.3,0.2-0.7,0.4-0.7,0.8c-0.3,0.6-0.3,1.4-0.5,2c0,0-0.1,0-0.1,0c0,0,0-0.1,0-0.1
		c-0.5-0.2-0.5,1.9-0.6,2.3c-0.4,0.6-0.9,1.3-1.3,2c-0.1,0.4-0.3,0.9-0.3,1.3c-0.2,0.3-0.2,0.3-0.2,0.4c0,0,0,0.1,0.1,0.1
		c-0.1,0.3-0.2,0.6-0.3,0.9c0,0-0.1,0-0.1,0c0.2,0.6-0.6,1.6-0.6,2.3c0,0,0,0,0.1,0.1c0.1,0,0.1-0.1,0.2-0.1c0,0,0,0,0,0
		c-0.3,0.4-0.6,0.7-1.1,0.7c0,0,0,0.1,0,0.1c0,0,0.1,0,0.1,0c-0.1,0.3-0.4,0.4-0.7,0.4c0,0.1,0,0.1,0,0.2c0,0,0-0.1-0.1-0.1
		c0.3-0.5,0.3-1.3,0.7-1.8c0.1,0.1,0.1,0.1,0.2,0c-0.2-0.2,0.3-0.4,0.4-0.5c0.1-0.7,0.3-1.4,0.3-2.1c-0.1,0-0.2,0-0.2,0
		c-0.3,0.6-0.7,1.3-1,2c-0.2,0.5-0.9,1.5-0.9,1.9c-0.2,0.6-0.6,1.8-1.2,2c-0.4,0.8-1.1,1.5-1.6,2.3c-0.6,0.6-1.2,2.5,0,2.8
		c0,0.1,0,0.3-0.1,0.4c-0.7,0.6-0.7,0.6-1.2,1.2C26.3,96.3,26.1,96.4,25.9,96.7 M72.5,95.2C72.5,95.2,72.5,95.2,72.5,95.2
		C72.5,95.2,72.5,95.2,72.5,95.2C72.5,95.1,72.5,95.1,72.5,95.2C72.5,95.2,72.5,95.2,72.5,95.2 M73.3,95.2
		C73.3,95.1,73.3,95.1,73.3,95.2C73.2,95.1,73.2,95.1,73.3,95.2 M72.6,95C72.6,95,72.6,95,72.6,95L72.6,95
		C72.6,94.9,72.6,94.9,72.6,95C72.6,94.9,72.6,94.9,72.6,95 M60.4,95.3c0.1-0.7-0.8-1.2-1.1-1.6c0.2-0.4-0.6-0.9-0.8-1.2
		c-0.1-0.6-0.5-0.9-1-1c0.1,0.6,1.1,1.5,1.5,1.9C59.5,94,59.9,94.6,60.4,95.3 M60.6,94.1c0,0,0.1,0,0.1,0c-0.1-0.1-0.1-0.2-0.1-0.3
		c0,0,0,0-0.1,0C60.5,93.9,60.5,93.9,60.6,94.1 M60.2,93.3C60.3,93.3,60.3,93.3,60.2,93.3c0-0.2-0.2-0.2-0.2-0.4c0,0,0,0-0.1,0
		C60,93.1,60.1,93.2,60.2,93.3 M29.4,94.1C29.4,94.1,29.4,94.1,29.4,94.1C29.4,94,29.4,94,29.4,94.1C29.4,94.1,29.4,94.1,29.4,94.1
		C29.4,94.1,29.4,94.1,29.4,94.1 M59.9,92.9c0,0,0,0-0.1-0.2C59.9,92.8,59.9,92.8,59.9,92.9 M65.8,92.4
		C65.9,92.4,65.9,92.4,65.8,92.4L65.8,92.4C65.9,92.4,65.9,92.4,65.8,92.4C65.8,92.4,65.8,92.4,65.8,92.4 M71,91.9
		C71,91.9,71,91.9,71,91.9C71,91.9,71,91.9,71,91.9C71,91.9,71,91.9,71,91.9C71,91.9,71,91.9,71,91.9 M58.6,91.9
		C58.6,91.9,58.6,91.9,58.6,91.9c0-0.2,0-0.2-0.1-0.2C58.5,91.8,58.5,91.8,58.6,91.9 M58.4,91.6c0-0.3-0.1-0.5-0.3-0.7
		C58.2,91.2,58.3,91.4,58.4,91.6 M57.9,90.9C58,90.9,58,90.9,57.9,90.9C58,90.9,58,90.8,57.9,90.9C57.9,90.8,57.9,90.8,57.9,90.9
		C57.9,90.8,57.9,90.9,57.9,90.9 M31.8,90.8C31.8,90.8,31.8,90.7,31.8,90.8C31.8,90.7,31.9,90.7,31.8,90.8
		C31.9,90.7,31.9,90.7,31.8,90.8C31.9,90.8,31.8,90.8,31.8,90.8 M32,90.7C32,90.6,32,90.6,32,90.7C32.1,90.6,32.1,90.6,32,90.7
		C32.1,90.6,32.1,90.6,32,90.7C32.1,90.7,32.1,90.7,32,90.7 M28.6,90C28.6,90,28.6,90,28.6,90C28.6,90,28.7,90,28.6,90
		C28.7,90,28.7,90,28.6,90C28.7,90,28.6,90,28.6,90 M54.7,88.6C54.7,88.6,54.7,88.6,54.7,88.6C54.7,88.5,54.7,88.5,54.7,88.6
		C54.7,88.5,54.7,88.5,54.7,88.6C54.7,88.5,54.7,88.5,54.7,88.6 M30.3,88.4C30.3,88.3,30.3,88.3,30.3,88.4c0-0.1,0-0.1,0-0.2
		c0,0,0.1,0,0.2,0C30.4,88.3,30.3,88.3,30.3,88.4 M29.9,88.2C29.9,88.2,29.9,88.2,29.9,88.2C29.9,88.1,30,88.1,29.9,88.2
		C30,88.2,30,88.2,29.9,88.2C30,88.2,29.9,88.2,29.9,88.2 M31.3,87.5C31.3,87.5,31.3,87.4,31.3,87.5C31.3,87.4,31.3,87.4,31.3,87.5
		C31.3,87.4,31.3,87.4,31.3,87.5C31.3,87.5,31.3,87.5,31.3,87.5 M32.7,86.3C32.7,86.3,32.7,86.3,32.7,86.3c0-0.1,0.1-0.1,0.1-0.1
		c0,0,0,0,0,0.1C32.8,86.3,32.8,86.3,32.7,86.3 M32.9,86.3C32.9,86.2,32.9,86.2,32.9,86.3c0.2-0.2,0.2-0.2,0.5-0.4
		C33.2,86,33.1,86.2,32.9,86.3 M32.1,86.1L32.1,86.1C32.1,86.1,32.1,86.1,32.1,86.1C32.1,86.1,32.1,86.1,32.1,86.1
		C32.1,86.1,32.1,86.1,32.1,86.1 M32.7,86c0.1-0.5,0.5-0.9,0.8-1.2c0.1,0,0.1,0,0.2-0.1c0,0,0-0.1-0.1-0.1c0.1-0.1,0.2-0.2,0.3-0.3
		c0.1,0.4-0.6,1-0.9,1.3c0,0.1,0,0.2,0,0.3C32.9,86,32.8,86,32.7,86 M53.1,85.3c0-0.1-0.1-0.2-0.1-0.3C53,85.1,53,85.1,53.1,85.3
		 M33.6,85.7C33.6,85.7,33.6,85.7,33.6,85.7C33.6,85.6,33.6,85.6,33.6,85.7C33.6,85.7,33.6,85.7,33.6,85.7
		C33.6,85.7,33.6,85.7,33.6,85.7 M32.3,85.7C32.3,85.7,32.3,85.7,32.3,85.7C32.3,85.7,32.3,85.7,32.3,85.7
		C32.3,85.7,32.3,85.7,32.3,85.7 M33.8,84.1c0-0.2,0.1-0.2,0.2-0.3c0,0,0,0.1,0,0.1c-0.1,0-0.1,0-0.1,0c0,0,0,0,0.1,0.1
		C33.9,84.1,33.9,84.1,33.8,84.1 M60.5,81.3c0,0,0.1,0,0.1,0c0,0,0-0.1,0-0.1C60.5,81.3,60.5,81.3,60.5,81.3 M45.6,81.4L45.6,81.4
		C45.6,81.4,45.6,81.4,45.6,81.4C45.6,81.4,45.6,81.4,45.6,81.4C45.6,81.4,45.6,81.4,45.6,81.4 M34,80.9C34,80.9,34,80.9,34,80.9
		C34,80.9,34.1,80.9,34,80.9C34.1,80.9,34,80.9,34,80.9 M34.7,79.9C34.7,79.9,34.7,79.9,34.7,79.9C34.7,79.9,34.7,79.9,34.7,79.9
		C34.8,79.9,34.8,79.9,34.7,79.9C34.8,79.9,34.7,79.9,34.7,79.9 M37.2,78.5C37.2,78.4,37.2,78.4,37.2,78.5
		C37.2,78.4,37.2,78.4,37.2,78.5C37.2,78.4,37.2,78.4,37.2,78.5C37.2,78.5,37.2,78.5,37.2,78.5 M35.7,76.4c0-0.2,0.1-0.4,0.1-0.5
		c0,0,0,0,0.1,0c0,0.2-0.1,0.3-0.1,0.5C35.8,76.4,35.7,76.4,35.7,76.4 M63.8,75.3C63.8,75.3,63.8,75.3,63.8,75.3
		C63.8,75.3,63.8,75.3,63.8,75.3C63.8,75.2,63.8,75.2,63.8,75.3C63.8,75.3,63.8,75.3,63.8,75.3 M57.7,73C57.7,73,57.7,73,57.7,73
		C57.7,73,57.7,73,57.7,73C57.7,73,57.7,73,57.7,73 M40,72c0.1-0.1,0.3-1,0.6-0.9C40.6,71.5,40.3,71.9,40,72 M39.8,62.5
		C39.8,62.5,39.7,62.4,39.8,62.5C39.8,62.4,39.8,62.4,39.8,62.5C39.8,62.4,39.8,62.4,39.8,62.5 M52.7,49.7c0.1-0.5,0.1-0.7,0.1-1.2
		C52.6,49,52.7,49.3,52.7,49.7 M44.7,44.6C44.7,44.6,44.7,44.6,44.7,44.6C44.7,44.6,44.7,44.6,44.7,44.6
		C44.8,44.6,44.8,44.6,44.7,44.6C44.8,44.6,44.7,44.6,44.7,44.6 M54.5,42.8C54.6,42.8,54.6,42.8,54.5,42.8c0.1-0.1,0.1-0.1,0-0.2
		C54.6,42.7,54.6,42.7,54.5,42.8 M52.9,35.2c0,0,0.1-0.1,0.1-0.1c0-0.1,0-0.2,0-0.3c0,0-0.1,0-0.1,0c0-0.1,0-0.1,0.3-1.2
		c0-0.3,0.1-0.7,0.1-1c-0.2,0-0.2,0-0.3,0.1c0,0.2,0,0.2,0.1,0.6C52.8,33.9,52.9,34.5,52.9,35.2 M54.4,34.8c0,0,0.1,0,0.1,0
		c0-0.2,0-0.5,0.1-0.7c0-1.5,0.1-3,0.1-4.5c-0.7,0-0.4,0.7-0.4,1.2c0,0.7,0,0.7-0.1,1.4c-0.1,0.2-0.3,0.4-0.4,0.6
		C53.9,33.4,54,34.1,54.4,34.8 M52.6,29.9c0-0.2,0-0.2,0-0.2C52.7,29.8,52.7,29.9,52.6,29.9C52.7,29.9,52.7,29.9,52.6,29.9
		 M52.7,29.6c0-0.1,0-0.2-0.1-0.3c0,0,0.1,0,0.1,0C52.8,29.6,52.8,29.6,52.7,29.6 M54.6,29.4c0,0,0-0.1,0-0.1
		C54.7,29.3,54.7,29.3,54.6,29.4C54.7,29.4,54.7,29.4,54.6,29.4 M52.7,29.2c0-0.2,0-0.4,0-0.6c0,0,0.1,0,0.1,0c0,0.1,0,0.1,0,0.2
		c0,0,0.1,0,0.1,0C52.9,28.9,52.8,29,52.7,29.2C52.8,29.2,52.7,29.2,52.7,29.2 M54.6,29.1c-0.1-0.6-0.3-1.4-0.2-2.1c0,0,0,0,0.1,0
		c0-0.3,0.2-0.9,0.4-1c0,0.1-0.1,0.2-0.2,0.6C54.8,28.4,54.8,28.4,54.6,29.1C54.7,29.1,54.6,29.1,54.6,29.1 M53,28.7
		c0-0.1,0-0.1,0.1-0.2c0,0,0.1,0,0.1,0c0,0,0,0.1,0,0.1C53.1,28.6,53.1,28.7,53,28.7 M53,27.5c0.1-0.3,0.1-0.6,0.2-0.9
		c0.2,0,0.1,0.3,0.1,0.5C53.1,27.3,53.1,27.4,53,27.5 M55,26C55,25.9,55,25.9,55,26C55,25.9,55,25.9,55,26C55,25.9,55,25.9,55,26
		C55,26,55,26,55,26 M55.1,25.5L55.1,25.5C55.2,25.4,55.2,25.4,55.1,25.5C55.2,25.5,55.2,25.5,55.1,25.5
		C55.2,25.5,55.2,25.5,55.1,25.5 M54.5,22.9c0-0.6,0.1-1.6,0.6-2c0-0.2,0-0.4,0-0.6c0.2-0.1,0.2-0.1,0.4-0.1c0-0.1,0-0.1,0-0.1
		c0,0,0.1,0,0.1,0c0,0.1,0,0.1,0,0.2c-0.1,0.1-0.7,1.7-0.8,1.9c0,0-0.1,0-0.1,0.1c0,0.2,0.1,0.3,0,0.5
		C54.7,22.8,54.6,22.8,54.5,22.9 M48.1,20.3C48.1,20.3,48.1,20.3,48.1,20.3C48.1,20.2,48.1,20.2,48.1,20.3
		C48.1,20.3,48.1,20.3,48.1,20.3 M55.6,20c0-0.1,0-0.1,0-0.2c0,0,0,0,0.1,0C55.7,19.9,55.7,19.9,55.6,20C55.7,20,55.7,20,55.6,20"/>
	<path class="st3" d="M51.7,122l-0.2,0c-0.8-0.2-1.4-0.3-2-0.8c0-0.3,0.2-0.6,0.6-0.9c0-0.1,0.1-0.1,0.1-0.1l0,0
		c1.5-1.9,3.3-3.3,5.1-4.7c0.6-0.5,1.2-0.9,1.8-1.4c0.3-0.2,0.5-0.4,0.8-0.6c0.5-0.4,0.9-0.8,1.3-1l-0.3-1.2c-0.3,0-0.7,0-1.1,0.2
		c-1.6,0.4-3,0.8-4.5,1.3l-0.2,0.1c-1,0.3-2.2,0.5-3.4,0.7l0.1,1.3c1.3-0.1,2.5-0.4,3.6-0.7l0.2-0.1c0.9-0.3,1.8-0.5,2.7-0.8
		c0,0,0,0,0,0c-0.6,0.5-1.2,1-1.8,1.4c-1.6,1.3-3.1,2.5-4.5,4c0-0.1,0.1-0.1,0.1-0.2l-1-0.8c-0.5,0.6-0.9,1.2-1.5,1.8
		c-0.7,0.6-1.6,1.3-2.7,1.5c-0.3,0-1.5,0.2-1.9-0.6c-0.1-0.3-0.1-0.7,0-1.2l0-0.2c0-0.5,0.1-1,0.2-1.4c0,0,0.1,0,0.1,0.1
		c0.6,0.3,1.3,0.2,2,0.1c0.9-0.2,1.7-0.7,2.4-1.5c0.6-0.7,0.9-1.8,0.7-3c0-0.4-0.3-0.7-0.7-0.8l-0.1,0c-1.6-0.4-3.3,0.4-4.5,2.1
		c-0.8,1.2-1.2,2.5-1.3,3.6c0-0.2,0-0.5,0-0.7c0-0.6,0.1-1.2,0.1-1.9l0.1-0.2c0.1-0.3,0.1-0.7,0.2-0.9c0-0.3,0-0.5,0.1-0.7l0.4-1
		h-0.3c0.3-2.1,0.4-3.9,0.3-5.6l0-0.1c0-0.3-0.1-0.8-0.4-1.1l-0.1-0.1c-0.3-0.2-0.8-0.2-1,0.1l-0.1,0.1c-0.2,0.3-0.2,0.5-0.2,0.7
		c0,0,0,0.1,0,0.1c-0.1,0.2-0.1,0.4,0,0.5c0,0,0,0,0,0c0,0,0,0,0,0l0.6,0.1c0.1,1.7,0,3.4-0.3,5.5l-0.3,0.2l0.1,0.3l0,0c0,0,0,0,0,0
		c-0.2-0.2-0.5-0.4-0.9-0.4c-0.4,0-0.7,0-1.2,0l0,0c-0.3,0-0.5,0.2-0.7,0.2l0,0c-0.7,0.4-1.5,0.8-2,1.7l-0.1,0.2
		c-0.3,0.4-0.5,0.8-0.7,1.3c-0.4,1.2-0.5,2.5-0.5,3.8c-0.4,0.4-1,0.8-1.6,1c-0.3,0.1-0.6,0.1-0.9,0.1c-0.1,0-0.3,0-0.4,0
		c-0.3,0-0.6-0.2-0.7-0.4c-0.1-0.2-0.2-0.4-0.2-0.6l0,0c0-0.7,0-1.3,0-2c0-0.9,0-1.9-0.1-2.8c0-0.5-0.3-0.7-0.4-0.8
		c-0.5-0.3-1,0-1.1,0.1l-0.1,0.1c-0.4,0.3-0.8,0.5-1.1,0.9l-0.1,0.1c-1,1.2-2,2.3-2.9,3.6c0-0.1,0.1-0.3,0.1-0.4
		c0-0.2,0.1-0.5,0.1-0.8l0,0c0-0.2,0-0.4,0-0.6c0-0.3,0-0.6,0.1-0.9l-1.2-0.2c-0.1,0.3-0.1,0.7-0.1,1c0,0.2,0,0.4,0,0.6
		c0,0.2-0.1,0.5-0.1,0.7c-0.1,0.4-0.1,0.8-0.2,1.2c0,0.4-0.1,0.7-0.1,1.1l-0.1,0c-0.3,0.6-0.9,1.1-1.7,1.7c-1,0.8-2,1.2-3.2,1.5
		c-0.1,0-0.3,0-0.4,0.1l-0.8-0.4c-0.4-0.2-0.8-0.5-1.2-0.7c0,0,0,0,0,0c-0.2-1,0.1-2,0.4-2.9c0,0,0,0,0,0c0.1,0.1,0.3,0.2,0.5,0.3
		c0.4,0.2,1,0.2,1.5,0.1c1.4-0.3,2.3-1.3,2.9-2.2c0.4-0.5,0.5-0.9,0.6-1.4l0,0c0,0,0-0.1,0-0.1c0-0.2,0-0.5-0.1-0.8
		c-0.4-0.9-1.4-0.8-1.9-0.7l-0.1,0c-0.7,0.1-1.3,0.5-1.8,0.9c-0.6,0.5-1.2,1-1.6,1.6l-0.4-0.2c-0.2,0.3-0.2,0.7-0.2,1.2
		c-0.2,0.3-0.4,0.7-0.5,1c-0.3,0.8-0.6,1.6-0.6,2.6c-0.8-0.4-1.5-0.9-2.3-1.4c-0.7-0.4-1.3-0.7-2-1.1c-0.2-0.1-0.3-0.2-0.5-0.2
		c1.6-0.6,3.3-1.4,4.9-2.8c0.4-0.3,1-0.9,1.2-1.9c0.1-0.5,0.1-0.9-0.1-1.3c-0.1-0.4-0.4-0.7-0.6-0.9l0,0c-0.8-0.7-1.7-1.1-2.9-1.2
		c-1.5-0.2-2.9-0.1-4.2,0c-0.8,0-1.5,0.2-2.3,0.4c0-0.1,0-0.1,0-0.2l-1.3-0.1c0,0.2-0.1,0.5-0.1,0.8c-0.1,0-0.2,0.1-0.2,0.1
		c-0.2,0.1-0.5,0.1-0.7,0.2c-0.4,0.1-0.7,0.2-1.1,0.3l0.5,1.2c0.3-0.1,0.6-0.2,0.9-0.3c0.2,0,0.4-0.1,0.6-0.2c0,0.1,0,0.2,0,0.3
		c-0.2,3.7-0.2,7.5,0.1,11.2l0,0.1c0,0.2,0,0.5,0,0.8c0,0.4,0,0.7,0.1,1.1l1.2-0.2c0-0.3,0-0.6,0-0.9c0-0.4,0-0.7-0.1-1
		c-0.3-3.6-0.3-7.3-0.1-11l0,0c0-0.3,0-0.5,0-0.8c0.9-0.3,1.7-0.4,2.5-0.5c1.3-0.1,2.6-0.2,4,0c0.9,0.1,1.6,0.4,2.2,0.9
		c0.1,0.1,0.2,0.2,0.2,0.3c0.1,0.2,0.1,0.5,0,0.8l0,0c-0.1,0.5-0.3,0.7-0.7,1.1c-2.1,1.9-4.5,2.6-6.5,3.2l0.3,1.2
		c0.1,0,0.3-0.1,0.4-0.1l0,0c0.5,0.3,1.1,0.6,1.6,0.8c0.6,0.3,1.3,0.6,1.9,1c1.1,0.7,2.2,1.4,3.3,2c0.4,0.7,1,1.2,1.9,1.4
		c0.2,0.1,0.5,0.1,0.8,0.1c1,0.6,2,1.1,3.1,1.7c0.1,0.1,0.2,0.1,0.3,0.2c0.4,0.2,0.9,0.5,1.4,0.5l0.1-1.3c-0.3,0-0.6-0.2-0.9-0.4
		c-0.1-0.1-0.2-0.1-0.3-0.2c-0.6-0.3-1.2-0.6-1.7-0.9c0.9-0.3,1.8-0.8,2.7-1.4c0.3-0.2,0.6-0.4,0.8-0.6v0.6l0.8-0.3
		c0.4-0.1,0.5-0.5,0.6-0.6l0,0c0.2-0.4,0.4-0.8,0.5-1.2c0.2-0.4,0.3-0.8,0.6-1.2c0.9-1.4,1.9-2.5,3-3.7l0.1-0.1
		c0.2-0.2,0.4-0.4,0.7-0.6c0.1,0.8,0.1,1.5,0.1,2.2c0,0.7,0,1.4,0,2c0,0.4,0.1,0.8,0.3,1.1c0.3,0.7,1,1.2,1.9,1.2c0.1,0,0.2,0,0.3,0
		c0.4,0,0.9,0,1.3-0.1c0.5-0.2,1-0.4,1.4-0.7c0.2,0.5,0.7,1,1.3,1.3c0.2,0.1,0.5,0.1,0.8,0.1c0.3,0,0.5,0,0.8-0.1
		c1.3-0.4,2-1.5,2.5-2.5c0.1-0.1,0.1-0.2,0.2-0.3c0,0.2,0,0.3,0.1,0.5c0,0.1,0,0.2,0,0.3c0,0.3,0.1,0.5,0.1,0.8
		c0,0.2,0.1,0.3,0.1,0.5c0,0.3,0.1,0.6,0.2,0.9l1.4-0.2v-0.1h-0.5l0.5-0.1c-0.1-0.2-0.1-0.4-0.1-0.6c0-0.2-0.1-0.5-0.1-0.7
		c0-0.1,0-0.2-0.1-0.4c0.4,0.7,1.2,1,2.2,1c0.3,0,0.5,0,0.8-0.1c1.4-0.3,2.5-1.1,3.3-1.8c0.1,0,0.1-0.1,0.1-0.2
		c-0.3,0.4-0.5,0.9-0.4,1.5l0,0.2l0.1,0.1c0.9,0.9,1.9,1.1,2.8,1.3l0.2,0c1.3,0.3,2.7,0.5,4,0.8c1.7,0.3,3.3,0.5,4.9,1l0.3-1.2
		c-1.7-0.5-3.4-0.8-5-1C54.3,122.5,53,122.3,51.7,122 M44.2,115.1c0.3-0.5,1.5-1.9,2.9-1.7c0.1,0.8-0.1,1.4-0.4,1.8
		c-0.5,0.6-1.1,1-1.7,1.1c-0.4,0.1-0.8,0.2-1.1,0c0,0-0.1-0.1-0.1-0.2c0-0.1-0.1-0.2-0.2-0.2C43.8,115.7,44,115.4,44.2,115.1
		 M18.8,117c0.4-0.3,0.8-0.6,1.2-0.6l0.1,0c0.2,0,0.5-0.1,0.6,0c0,0,0,0.1,0,0.2c0,0.1,0,0.1,0,0.2c0,0.2-0.1,0.4-0.3,0.7
		c-0.5,0.7-1.2,1.5-2.2,1.7c-0.3,0.1-0.6,0.1-0.8,0c-0.2-0.1-0.3-0.2-0.3-0.3C17.5,118.1,18.1,117.5,18.8,117 M42.3,113.6
		L42.3,113.6c-0.1-0.1-0.1-0.2,0-0.3h0.1C42.3,113.4,42.3,113.5,42.3,113.6 M42.3,113.1L42.3,113.1C42.3,113.1,42.3,113,42.3,113.1
		C42.3,113,42.3,113,42.3,113.1 M39.2,119.7c-0.5,0.8-1,1.6-1.8,1.9c-0.3,0.1-0.6,0.1-0.8,0c-0.1-0.1-0.6-0.3-0.7-0.7
		c-0.2-1.5-0.1-2.9,0.4-4.3c0.1-0.3,0.3-0.6,0.6-1l0.1-0.2c0.4-0.6,0.9-0.9,1.5-1.2c0.1-0.1,0.3-0.1,0.4-0.1c0.3,0,0.6,0,0.9,0l0,0
		l0,0c0,0,0,0,0.1,0.1c0.1,0.1,0.3,0.3,0.3,0.4c0,0.1,0,0.2,0.1,0.4c0,0.1,0,0.2,0,0.3l0.1,0c0,0.3,0,0.6-0.1,0.9
		C40.2,117.4,39.9,118.6,39.2,119.7"/>
	<path class="st3" d="M58.3,115.3l0,1.3c0.1,0,0.3,0,0.4,0c1.4,0,2.9-0.1,4.9-0.3l-0.1-1.3C61.4,115.2,59.8,115.3,58.3,115.3"/>
	<path class="st3" d="M97.6,113.7L97.6,113.7c-0.9-1.2-2.1-1.7-3.2-2.3c-0.5-0.2-1-0.5-1.4-0.8c-0.1-0.1-0.3-0.2-0.4-0.2
		c-0.4-0.2-0.6-0.3-0.7-0.5c-0.1-0.5,0-0.9,0.3-1.5c0.3-0.3,0.6-0.7,0.9-0.9c0.3-0.1,0.6-0.3,0.8-0.3c0.5-0.1,1-0.2,1.3,0l0,0
		c0,0,0,0.1,0.1,0.1c0.1,0.1,0.1,0.2,0.2,0.2l0.9-0.9c0,0-0.1-0.1-0.1-0.1c-0.1-0.1-0.3-0.3-0.5-0.4c-0.8-0.3-1.5-0.2-2.1-0.1
		c-0.4,0.1-0.8,0.3-1.2,0.5c-0.6,0.3-1,0.8-1.3,1.2l0,0.1c-0.4,0.6-0.9,1.5-0.5,2.6c0.2,0.7,0.8,1,1.3,1.3c0.1,0.1,0.2,0.1,0.3,0.2
		c0.5,0.3,1,0.6,1.5,0.8c1,0.5,2,1,2.7,1.9c0.2,0.3,0.3,0.6,0.2,0.9c0,0.1-0.2,0.2-0.3,0.3c-0.1,0-0.1,0.1-0.2,0.1
		c-1,0.5-2.1,1-3.4,1.3c-0.2,0-0.7,0.2-0.8,0.1c-0.4-0.6-0.3-1.3,0.2-2.3l-1.1-0.5c-0.3,0.6-0.4,1.1-0.5,1.6c-0.1,0-0.2-0.1-0.3-0.1
		c-0.8-0.5-1.3-0.9-1.4-1.5l0,0c-0.2-0.8-0.2-1.7,0-2.4c0.1-0.3,0.2-0.5,0.3-0.8c0.1-0.4,0.3-0.8,0.4-1.1c0.1-0.4,0.2-0.8,0.4-1.2
		c0.1-0.3,0.3-0.5,0.3-0.8l-1.2-0.5c-0.1,0.3-0.2,0.5-0.3,0.8c-0.1,0.1-0.1,0.2-0.2,0.3c-0.2,0.3-0.3,0.6-0.5,1l0,0
		c-0.1,0.3-0.2,0.5-0.2,0.8c-0.1,0.3-0.1,0.5-0.2,0.8l0,0.1c0,0.1,0,0.2-0.1,0.3c-0.7,1.5-1.9,2.8-3.6,3.8c-0.1,0.1-0.3,0.1-0.4,0
		c0,0,0,0,0,0c-0.2-1.3-0.2-2.6-0.1-3.9c0-0.7,0-1.5,0-2.2l-1.3,0c0,0.7,0,1.4,0,2.1c-0.3-0.8-1.1-1.3-2.2-1.6
		c-0.7-0.2-1.6-0.2-2.5-0.1c-0.6,0.1-1.1,0.3-1.5,0.5c-0.2,0.1-0.3,0.1-0.5,0.2l0,0.1c-0.5,0.2-1,0.5-1.5,0.8
		c-0.2,0.1-0.3,0.2-0.4,0.3c0.2-0.3,0.3-0.5,0.5-0.8c0.6-0.8,1.1-1.7,1.7-2.6l0.1-0.2c0.6-1,1.2-1.9,1.7-3c0.1-0.3,0.1-0.6,0-0.8
		c-0.1-0.2-0.3-0.4-0.6-0.5l-0.4,1.2c-0.1,0-0.2-0.2-0.1-0.3c-0.5,1-1,1.8-1.6,2.8l-0.1,0.2c-0.6,0.9-1.2,1.7-1.7,2.6
		c-0.6,0.9-1.2,1.8-1.8,2.7c-0.6,0.9-1.1,1.8-1.5,2.7c-0.2,0.4-0.4,0.8-0.6,1.2c-0.1-0.1-0.2-0.3-0.3-0.4c-0.6-0.9-1.2-1.7-1.8-2.6
		c-0.3-0.4-0.6-0.9-0.9-1.3c-0.9-1.3-1.7-2.5-2.4-3.7c-0.3-0.5-0.6-0.9-0.9-1.4l-1.1,0.5c0.1,0.3,0.3,0.7,0.5,1
		c0.1,0.2,0.2,0.4,0.3,0.5l0.1-0.1c0,0,0,0,0,0c0.7,1.2,1.5,2.5,2.4,3.8c0.3,0.5,0.6,0.9,1,1.3c0.6,0.8,1.2,1.6,1.8,2.5
		c0.3,0.4,0.4,0.8,0.4,1.1l-0.2,1.3l1.1-0.6c0.2-0.1,0.3-0.2,0.5-0.4l0.1-0.1l0-0.1c0.5-0.7,0.8-1.5,1.2-2.2
		c0.4-0.7,0.7-1.4,1.2-2.1c-0.2,0.8-0.3,1.7-0.1,2.7c0.2,1.1,1.3,1.7,1.7,1.9c0.5,0.2,1,0.3,1.7,0.3c0.4,0,0.7,0,1.1-0.1
		c1.8-0.3,3-1.3,4-2.3c0.9-0.7,1.4-1.5,1.6-2.3c0,0.4,0.1,0.8,0.1,1.3c0.1,0.5,0.3,0.8,0.7,1c0.5,0.2,1,0.2,1.5-0.1
		c1.1-0.7,2.1-1.5,2.8-2.4c0,0.2,0.1,0.5,0.1,0.7c0.2,1.1,1.1,1.7,2,2.3c0.3,0.2,0.7,0.3,1,0.4c0.1,0.2,0.2,0.5,0.3,0.7
		c0.3,0.4,0.7,0.6,1.2,0.6c0.4,0,0.7-0.1,1-0.1c1.4-0.3,2.6-0.9,3.7-1.5l0.1-0.1c0.1,0,0.1-0.1,0.2-0.1c0.3-0.2,0.7-0.5,0.8-1l0,0
		C98.1,115,98,114.4,97.6,113.7 M81.2,113.6c-0.2,0.7-0.6,1.2-1.3,1.8l0,0c-0.9,0.9-2,1.7-3.4,2c-0.9,0.2-1.5,0.1-2-0.1
		c-0.6-0.3-1-0.7-1-1c-0.2-1.2-0.1-2.2,0.4-3c0.3-0.4,0.6-0.8,1.1-1.1c0.5-0.3,1-0.6,1.6-0.8c0.3-0.1,0.7-0.1,1-0.1
		c0.2,0,0.3,0,0.5,0c0.3,0,0.7,0,1,0l0-0.5c0.3,0,0.6,0,0.9,0.1c0.7,0.1,1.2,0.5,1.3,0.9C81.4,112.4,81.4,113,81.2,113.6"/>
</g>
</svg>
